<svg xmlns="http://www.w3.org/2000/svg" viewBox="0 0 588.26 258.2"><defs><style>.cls-1{opacity:0.2;}.cls-2{fill:#e38a25;}.cls-3{fill:#010101;}.cls-4{fill:#ffcc04;}.cls-5{fill:#8c8c8c;}.cls-6{fill:#ffe4ca;}.cls-7{fill:#fff;}.cls-8{fill:#e0845c;}.cls-9{fill:#ef363a;}.cls-10,.cls-15{fill:none;stroke:#010101;stroke-linecap:round;stroke-linejoin:round;}.cls-10{stroke-width:2.56px;}.cls-11{fill:#f3787d;}.cls-12{fill:#9c1f22;}.cls-13{fill:#b3282b;}.cls-14{fill:#d0d9e3;}.cls-15{stroke-width:4.26px;}</style></defs><title>watermark</title><g id="Layer_2" data-name="Layer 2"><g id="Layer_1-2" data-name="Layer 1"><g class="cls-1"><path class="cls-2" d="M52.1,231.55c-17.85-12.05-23.53-50.94-13.55-83.76a96.73,96.73,0,0,1,9.54-22.09c-3.48-5.56-7.93-10.07-12.89-12.28l-.53-.38C23.42,128,17.05,147.35,15,166.09c-2.67,24.14,6.28,44.27,30,61.12,2.19,1.55,4.52,3.1,7,4.62Z"/><path class="cls-3" d="M52.58,119.13a25.38,25.38,0,0,0-13.47-10.71l-.45-.28c-1.39,1.58-2.73,3.21-4,4.9l.53.38c5,2.21,9.41,6.72,12.89,12.28A73,73,0,0,1,52.58,119.13Z"/><path class="cls-4" d="M63.76,238.4a72.58,72.58,0,0,0,4.5-8.94,77.41,77.41,0,0,0,5.86-20.73c.31-2.88-16.78-5.89-22.45-27.64-2.47-9.46-.92-22.59,4-33.83a52,52,0,0,0-6-18.82c-.51-.94-1-1.85-1.61-2.74a96.73,96.73,0,0,0-9.54,22.09c-10,32.82-4.3,71.71,13.55,83.76l-.17.28C55.6,234.09,59.55,236.3,63.76,238.4Z"/><path class="cls-3" d="M52.58,119.13a73,73,0,0,0-4.49,6.57c.57.89,1.1,1.8,1.61,2.74a5.82,5.82,0,0,0,3.56-.39A3.93,3.93,0,0,0,55,124.22a9.68,9.68,0,0,0-1.66-4C53.05,119.84,52.82,119.48,52.58,119.13Z"/><path class="cls-4" d="M172.91,69.12C151.54,55,119.53,46.52,100.18,43.45l.09-.46C104.63,39.72,111,31.72,111,31.72L49.39,4.42,81.46,23.29A56.26,56.26,0,0,0,64.19,47.52c17.75,7.54,24.74,10.92,41.38,20.66,3.5,2,10.49,6.24,12.88,9.51,5,6.86,4.87,11.85,4.47,20.4-.76,16.16,3.82,38.28,14,47.6,11.5,10.54,28.89,17.13,40.84,8.82a60.43,60.43,0,0,0,5.14-7.16,77.05,77.05,0,0,0,9-21.68C196.79,105.7,196.92,85,172.91,69.12Z"/><path class="cls-5" d="M81.94,86C63.6,87.69,49.3,96.11,38.66,108.14l.45.28a25.38,25.38,0,0,1,13.47,10.71c7.23-9.4,16.73-16.75,29.44-22.58,4.92-2.25,12.82-3.1,16.53-3l.68-.37A30,30,0,0,0,94,86l-.08-.15A78.08,78.08,0,0,0,81.94,86Z"/><path class="cls-6" d="M55.66,147.26c-4.91,11.24-6.46,24.37-4,33.83,5.67,21.75,22.76,24.76,22.45,27.64a77.41,77.41,0,0,1-5.86,20.73l.65.25a57.32,57.32,0,0,0,5.3,4.06c3.26-8.34,7-20,7.51-28.88,6.81-22.28,11.86-59.36,7.75-80.57a48.9,48.9,0,0,0-7.77.13C69.78,125.56,60.83,135.35,55.66,147.26Z"/><path class="cls-7" d="M53.26,128.05a5.82,5.82,0,0,1-3.56.39,52,52,0,0,1,6,18.82c5.17-11.91,14.12-21.7,26-22.81a48.9,48.9,0,0,1,7.77-.13,26.31,26.31,0,0,1,14.91,5.38l.36,0c-.76-12.7.09-25.91-5.51-36.53l-.68.37c-3.71-.06-11.61.79-16.53,3-12.71,5.83-22.21,13.18-29.44,22.58.24.35.47.71.71,1.08a9.68,9.68,0,0,1,1.66,4A3.93,3.93,0,0,1,53.26,128.05Z"/><path class="cls-8" d="M68.26,229.46a72.58,72.58,0,0,1-4.5,8.94q3.41,1.72,7,3.34l.16-.34c.9-1.87,2-4.53,3.25-7.63a57.32,57.32,0,0,1-5.3-4.06Z"/><path class="cls-2" d="M99.23,93.14c5.6,10.62,4.75,23.83,5.51,36.53a80,80,0,0,0,1.4,11.59c2.51,12.08,11.32,19.9,22.63,24.92a42.28,42.28,0,0,0,36.12-1,40.71,40.71,0,0,0,9.41-6.92c1.2-1.17,2.36-2.42,3.45-3.72-11.95,8.31-29.34,1.72-40.84-8.82-10.17-9.32-14.75-31.44-14-47.6.4-8.55.57-13.54-4.47-20.4-2.39-3.27-9.38-7.46-12.88-9.51C88.93,58.44,81.94,55.06,64.19,47.52A56.26,56.26,0,0,1,81.46,23.29L49.39,4.42l-7.1-3.14L65.17,23.4,42.32,48.69S67.4,70.74,81.94,86a78.08,78.08,0,0,1,12-.15L94,86A30,30,0,0,1,99.23,93.14Z"/><path class="cls-6" d="M89.47,124.32c4.11,21.21-.94,58.29-7.75,80.57-.54,8.89-4.25,20.54-7.51,28.88,14.47,9.93,38.61,19,56.09,21.21,9.17-12,15.23-33.32,16.49-36.2,11.82-16.22,24.05-41.36,28.79-58.35l1.28.49a16.6,16.6,0,0,0-2-2.11l-.56-.58a40.71,40.71,0,0,1-9.41,6.92,42.28,42.28,0,0,1-36.12,1c-11.31-5-20.12-12.84-22.63-24.92a80,80,0,0,1-1.4-11.59l-.36,0A26.31,26.31,0,0,0,89.47,124.32Z"/><path class="cls-8" d="M71,241.4l-.16.34a184,184,0,0,0,50.36,14.2q4.09.54,7.77.72c.47-.53.92-1.1,1.37-1.68-17.48-2.21-41.62-11.28-56.09-21.21C73,236.87,71.86,239.53,71,241.4Z"/><path class="cls-7" d="M174.86,158.81a16.6,16.6,0,0,1,2,2.11c4.95,6.22,5.76,15.79,3.39,26.44a14.3,14.3,0,0,0,2.45-2.14c2.59-11.24,3.67-24.52.19-37.87a60.43,60.43,0,0,1-5.14,7.16c-1.09,1.3-2.25,2.55-3.45,3.72Z"/><path class="cls-6" d="M175.58,160.43c-4.74,17-17,42.13-28.79,58.35-1.26,2.88-7.32,24.22-16.49,36.2a57.55,57.55,0,0,0,8.51.49A125.21,125.21,0,0,0,149,228.73c.66-2.68,3.41-3,3.94-3.37,8.68-4.19,21.11-17.49,25.76-32.34.59-1.91,1.1-3.81,1.51-5.66,2.37-10.65,1.56-20.22-3.39-26.44Z"/><path class="cls-8" d="M130.3,255c-.45.58-.9,1.15-1.37,1.68a71,71,0,0,0,9.53-.11l0-.39.37-.69A57.55,57.55,0,0,1,130.3,255Z"/><path class="cls-4" d="M171.23,226.54a45.49,45.49,0,0,0-.1-11.56,114.86,114.86,0,0,0,9.66-22.64c.69-2.26,1.33-4.64,1.91-7.12a14.3,14.3,0,0,1-2.45,2.14c-.41,1.85-.92,3.75-1.51,5.66-4.65,14.85-17.08,28.15-25.76,32.34-.53.32-3.28.69-3.94,3.37a125.21,125.21,0,0,1-10.23,26.74l-.37.69,0,.39C163.5,254.46,169.88,238.1,171.23,226.54Z"/><path class="cls-9" d="M171.23,226.54c7.1-3.42,15.64-23.53,9.56-34.2A114.86,114.86,0,0,1,171.13,215,45.49,45.49,0,0,1,171.23,226.54Z"/><path class="cls-10" d="M182.8,147c8.52,32-9.2,63.65-11.68,68,0,0,8.34,48.66-50,41C90.06,251.84,62.8,239.89,45,227.2c-23.7-16.84-32.65-37-30-61.11,4.48-40.37,28.88-83.37,79-80.24"/><path class="cls-10" d="M104.38,129.7c-5-3.91-11.8-6.25-22.68-5.25-23.19,2.15-35.11,37.17-30,56.63,5.67,21.76,22.76,24.76,22.45,27.64C73,218.93,68,231.44,63.74,238.43"/><path class="cls-10" d="M138.43,256.16s6-9.87,10.61-27.44c.69-2.66,3.41-3.05,3.94-3.37,8.67-4.18,21.11-17.48,25.76-32.34,4.44-14.18,3.87-27.25-3.88-34.21"/><path class="cls-10" d="M94,86c14.15,14.28,8.24,36.5,12.14,55.26,2.51,12.08,11.32,19.9,22.63,24.91a42.21,42.21,0,0,0,36.12-1c14.07-7.36,23.21-24.18,27-39.47,4.91-20,5-40.67-19-56.55-25.08-16.6-64.81-25.36-81.54-26.79"/><path class="cls-10" d="M100.27,43C104.62,39.72,111,31.71,111,31.71L42.29,1.28,65.17,23.39,42.32,48.69S67.72,71,82.22,86.29"/><path class="cls-10" d="M55.7,147.78c-1.25-13.68-9.64-29.53-20.5-34.36"/><path class="cls-10" d="M49.59,128.43a6,6,0,0,0,3.67-.38A3.93,3.93,0,0,0,55,124.22a9.51,9.51,0,0,0-1.67-4c-3.47-5.52-7.37-9.4-14.17-11.8"/><path class="cls-10" d="M89.43,124.09c4.19,21.17-.88,58.44-7.72,80.8C81,217.08,74.27,234.47,71,241.4"/><path class="cls-10" d="M175.58,160.43c-4.75,17-17,42.13-28.79,58.34-1.33,3-8,26.73-18.09,38.15"/><path class="cls-10" d="M180.71,192.2c6.25,10.67-2.4,31-9.55,34.37"/><path class="cls-10" d="M182.31,186.4c-.83.82-1.66,1.64-2.5,2.45"/><path class="cls-7" d="M93.57,155.07c-16.77-8.34-31.48,2.1-32,28.47-.06,3.29,6.62,13,17.27,18,13.64,6.38,24,5.34,24,5.34C110.86,189.66,113.62,165,93.57,155.07Z"/><path class="cls-7" d="M122.08,223.4a109.42,109.42,0,0,1-19.3-9.5l-.31,0c-.92,1.63-2.06,3.82-3.17,6.28l.25.11c5.18,4.25,12.09,6.57,18.35,8.68h0c1.23-1.6,2.55-3.3,4-5.11Z"/><path class="cls-11" d="M106.22,244.42c-.82-5.7-5.33-11.5-9.79-14.23l-.63-.14c-.9,3.66-1.24,7.28-.49,10.28,1.12,4.46,4.07,7.19,7.38,6.68C103.7,246.86,104.82,246,106.22,244.42Z"/><path class="cls-12" d="M117.9,229c-6.26-2.11-13.17-4.43-18.35-8.68l-.25-.11a59.8,59.8,0,0,0-3.5,9.83l.63.14c4.46,2.73,9,8.53,9.79,14.23,2.57-2.87,6.09-8.06,11.68-15.4Z"/><path class="cls-7" d="M158.76,216.72c4.7-5.16,18.89-26.94,3.31-33.05-15.82-6.2-32.49,33.12-32.49,33.12C148.68,226.63,158.76,216.72,158.76,216.72Z"/><path class="cls-10" d="M123.21,223.81a108.86,108.86,0,0,1-20.43-9.91"/><path class="cls-10" d="M121.88,223.91c-11.56,14.56-15.9,22.6-19.19,23.1s-6.27-2.22-7.38-6.69c-2-8.07,3.9-20.61,7.16-26.38"/><path class="cls-10" d="M106.23,244.49c-.79-5.72-5.32-11.56-9.8-14.3"/><path class="cls-10" d="M117.9,229c-6.27-2.11-13.18-4.44-18.35-8.68"/><path class="cls-3" d="M103.35,207.6a1.49,1.49,0,0,1-.37.14l-.2,0h0l-.17,0h-.33l-.66,0c-.44,0-.87,0-1.31,0-.87,0-1.73-.07-2.6-.14-1.72-.15-3.44-.37-5.13-.68a58.2,58.2,0,0,1-10-2.79,49.45,49.45,0,0,1-9.35-4.53,40.22,40.22,0,0,1-8-6.7,27.18,27.18,0,0,1-3.23-4.25,16.55,16.55,0,0,1-1.25-2.49,10.09,10.09,0,0,1-.44-1.41c-.06-.25-.1-.51-.14-.78s0-.55,0-.74a52,52,0,0,1,.43-10.49,35.29,35.29,0,0,1,3.09-10.28,24,24,0,0,1,6.94-8.66,21.11,21.11,0,0,1,10.64-4.17,24,24,0,0,1,11.17,1.75c.88.33,1.7.75,2.54,1.15s1.62.87,2.39,1.4a30.75,30.75,0,0,1,4.42,3.4,28.05,28.05,0,0,1,6.42,9.05,29.59,29.59,0,0,1,1.76,5.21c.24.88.38,1.77.55,2.66s.25,1.79.3,2.68a46.82,46.82,0,0,1-.43,10.6,56.87,56.87,0,0,1-2.53,10.13c-.55,1.65-1.19,3.26-1.87,4.84-.34.8-.69,1.59-1.07,2.36l-.29.58c-.09.19-.23.47-.36.7C103.9,206.7,103.62,207.17,103.35,207.6Zm-1-1.47c.07-.34.14-.65.23-.95s.08-.25.16-.46l.21-.59c.29-.78.55-1.58.82-2.37.52-1.58,1-3.18,1.39-4.8a64.35,64.35,0,0,0,1.66-9.77c.55-6.51-.2-13.15-3-18.71a22.86,22.86,0,0,0-5.61-7.2,27.73,27.73,0,0,0-7.93-4.61A22.26,22.26,0,0,0,81.53,155a15.77,15.77,0,0,0-8.26,2.66,19.6,19.6,0,0,0-6.06,6.76,30.62,30.62,0,0,0-3.26,9,49.08,49.08,0,0,0-.93,9.79,8.6,8.6,0,0,0,1.3,4.14,24.85,24.85,0,0,0,2.76,3.95,35.17,35.17,0,0,0,7.36,6.5,37.34,37.34,0,0,0,4.28,2.5c1.49.72,3,1.41,4.57,2a56.41,56.41,0,0,0,9.59,2.83,48.18,48.18,0,0,0,4.94.72c.83.07,1.65.12,2.48.14.41,0,.83,0,1.24,0l.61,0h.48l-.11,0A.5.5,0,0,0,102.3,206.13Z"/><path class="cls-3" d="M105.88,150.55S90.63,140.4,73.94,144c0,0,4.81-11.35,17.1-9C100.58,136.79,105.1,147.35,105.88,150.55Z"/><path class="cls-3" d="M139.23,197.6c3.18-2.43,6.82-3.14,9.37-1.47,3.66,2.39,3.73,8.74.15,14.17s-9.43,7.9-13.08,5.51c-2.18-1.42-3.07-4.25-2.7-7.44C135,204.72,137,201.11,139.23,197.6Z"/><path class="cls-7" d="M138.72,198.42c1.6-1.87,3.93-2.57,5.51-1.54,1.76,1.15,1.91,4,.34,6.42s-4.28,3.4-6,2.25c-1.49-1-1.82-3.19-.93-5.3C138,199.63,138.34,199,138.72,198.42Z"/><path class="cls-3" d="M175.18,184.72s-.57-4-8.35-7.34c-5.71-2.44-13.73-2.86-13.73-2.86s11.25-9.05,18-4.79C179.63,175.16,175.12,183.52,175.18,184.72Z"/><path class="cls-3" d="M128.85,217.06a.86.86,0,0,1,0-.57l0-.05,0-.06,0-.11.09-.22.17-.44.36-.88.74-1.74c.5-1.15,1-2.3,1.55-3.44,1.07-2.28,2.19-4.54,3.42-6.75a76.68,76.68,0,0,1,8.47-12.67,35.1,35.1,0,0,1,5.66-5.42,16.6,16.6,0,0,1,7.53-3.36,11.37,11.37,0,0,1,4.38.2,14.28,14.28,0,0,1,3.93,1.65,11.78,11.78,0,0,1,3.26,2.89,11.25,11.25,0,0,1,1.94,3.94,16.76,16.76,0,0,1-.14,8.19,33.66,33.66,0,0,1-2.77,7.29,51.18,51.18,0,0,1-3.95,6.56c-.72,1.05-1.48,2.07-2.29,3.06-.4.5-.81,1-1.25,1.47l-.67.72a10.19,10.19,0,0,1-.83.67,22.4,22.4,0,0,1-14.75,3.79,32.4,32.4,0,0,1-7.51-1.45c-.61-.19-1.21-.4-1.82-.6l-1.77-.68-1.77-.77A15.14,15.14,0,0,1,128.85,217.06Zm1.46-.54a4.89,4.89,0,0,1,1.29.43l1.66.75,1.71.69c.58.2,1.15.42,1.74.61a31.54,31.54,0,0,0,7.18,1.38,20.4,20.4,0,0,0,13.64-3.74,7.56,7.56,0,0,0,.62-.53l.58-.67c.38-.47.76-.95,1.12-1.44.74-1,1.43-2,2.08-3a50.22,50.22,0,0,0,3.41-6.49,31.41,31.41,0,0,0,2.15-6.85,13.73,13.73,0,0,0-.24-6.65,8.33,8.33,0,0,0-3.89-4.65,9.37,9.37,0,0,0-6-1.55,13.44,13.44,0,0,0-6.09,2.53,32.23,32.23,0,0,0-5.31,4.77A76.54,76.54,0,0,0,137.29,204c-1.28,2.12-2.52,4.27-3.68,6.46-.59,1.1-1.16,2.2-1.71,3.31l-.82,1.67-.4.85-.19.42-.1.21,0,.1,0,.05h0A.69.69,0,0,0,130.31,216.52Z"/><path class="cls-3" d="M95.13,198.55c-1-.82-2.07-1.82-3.12-2.7s-2.13-1.79-3.2-2.66c-2.15-1.74-4.31-3.43-6.56-5s-4.51-3.13-6.89-4.54-4.8-2.81-7.26-4.39l-.13-.08a2.19,2.19,0,0,1,1.43-4A34.23,34.23,0,0,1,74,176a36.59,36.59,0,0,1,4.44,1.46,40.2,40.2,0,0,1,8.24,4.5,38.94,38.94,0,0,1,7,6.28,28.44,28.44,0,0,1,5.1,8.05,2.17,2.17,0,0,1-3.4,2.48Z"/><path class="cls-13" d="M16.72,137.89C13,140.06,10,144,7.63,149.32l.36.15a5,5,0,0,1,3.71-.8C13.09,144.16,14.81,140.25,16.72,137.89Z"/><path class="cls-14" d="M10.19,179.06C7,174.52,8.3,159.76,11.7,148.67a5,5,0,0,0-3.71.8l-.36-.15a71.63,71.63,0,0,0-4.49,14.55c-1.82,8.69-1.49,17.54,1,24.24l.54-.07c3.14,1,6.07-1.43,8.45-5.38A34,34,0,0,1,10.19,179.06Z"/><path class="cls-7" d="M18.17,168.63c1.77-9.13-1.42-19-6.47-20C8.3,159.76,7,174.52,10.19,179.06a34,34,0,0,0,3,3.6A45,45,0,0,0,18.17,168.63Z"/><path class="cls-9" d="M11.7,148.67c5.05,1,8.24,10.83,6.47,20a45,45,0,0,1-5,14,37.16,37.16,0,0,0,17.41,10.51c5.91-6.71,9.68-17.42,10.62-25.34C42.82,154,40.38,138,25.65,136.16a13.84,13.84,0,0,0-8.93,1.73C14.81,140.25,13.09,144.16,11.7,148.67Z"/><path class="cls-13" d="M13.14,182.66c-2.38,4-5.31,6.38-8.45,5.38l-.54.07c2.61,7,7.57,11.67,14.89,11.39,4.4-.16,8.27-2.65,11.51-6.33A37.16,37.16,0,0,1,13.14,182.66Z"/><path class="cls-10" d="M8,149.46c7-4.33,12.34,7.94,10.18,19.17C16.24,178.71,10.87,190,4.69,188"/><path class="cls-10" d="M41.17,167.83C39.71,180.08,31.46,199,19,199.5,4.71,200-.59,181.64,3.14,163.86c3.68-17.53,10.65-29.18,22.51-27.71C40.38,138,42.82,154,41.17,167.83Z"/><path class="cls-15" d="M39.09,177.12l-23.62-5.61c-.77-2.8,1.84-23.29,1.84-23.29s-5.13,12.15-7.4,21.86a105.29,105.29,0,0,0-2.18,20.36s-2.34-12.81-1.27-22.63c.91-8.28,3.34-22.72,3.34-22.72S4.69,151,2.89,165.16c-1.4,11-.62,17.81.36,21.83"/></g><g class="cls-1"><path class="cls-7" d="M281.63,116.74H265.16q-20.12,0-32.22-12.39t-12.1-32.51v-2q0-20,13.2-32.72t33.16-12.9L281.63,24V47.94H272.3a58.9,58.9,0,0,0-7.87,1.44q-10.94,3-11.81,10.22h29V81.32h-29a8.73,8.73,0,0,0,1.31,3.31A14.45,14.45,0,0,0,267.2,92h14.43Z"/><path class="cls-7" d="M336,81.32V58.58h53.35q0,26.24-10.61,41.54-12.21,17.64-37.35,17.64h-1.46a10.22,10.22,0,0,1-1.74-.15q-19.9-1-32.92-14.08t-13-33.07V66.81q0-19,15.74-32.41,13.85-11.82,34.25-11.82h2.63q21.57,0,33.81,15.08L359,56.39q-7.44-7.14-16.77-7.14A17.77,17.77,0,0,0,328,55.62,23,23,0,0,0,322.59,71a20.34,20.34,0,0,0,5.46,13.9,16.9,16.9,0,0,0,13.05,6.15h2a2.36,2.36,0,0,0,.73-.15q9-.73,13.12-9.62Z"/><path class="cls-7" d="M401.74,116.74V57.41q0-15.58,10-25.43t25.58-9.84h1.32q15.88,0,25.21,10.49,8.9,9.91,8.9,26.1v58H443.57v-27h-8.45V64.7h8.45V55.37q0-6-6.26-6-6.42,0-6.42,6.12v61.22Z"/><path class="cls-7" d="M496.19,116.74V50h-15.6V24h60.2V50H525.34v66.76Z"/></g><g class="cls-1"><path class="cls-7" d="M241.14,195.69l-22.4,12.72-5.11-9.24,8.54-4.85a6.65,6.65,0,0,0-4-1.85h-.49a1.77,1.77,0,0,1-.49.09,7.13,7.13,0,0,0-4.5,3.23,9.92,9.92,0,0,0-1.76,5.58,10.35,10.35,0,0,0,2.35,6.84,7.71,7.71,0,0,0,6.26,2.84q6.45,0,11.64-6.06l10,9.68a24.13,24.13,0,0,1-10,8.26,30.85,30.85,0,0,1-13.16,3q-10.17,0-16.72-6.61t-6.56-16.87A23.54,23.54,0,0,1,201,185.67q6.31-6.71,16.29-6.7,17.31,0,23.86,16.82Z"/><path class="cls-7" d="M248.38,224.35,252.49,172a11,11,0,0,1,4.16-7.67,12.7,12.7,0,0,1,8.37-3.17h1.66q9.4,0,11.75,9.48l4.85,20,5.52-21.59a9.37,9.37,0,0,1,4.9-5.83,15,15,0,0,1,7.55-2.07h1.57q11.18,1,12.06,12.14l4.21,51h-19l-2.05-36.29-7.63,32.18a6.55,6.55,0,0,1-5.48,5.09,3.8,3.8,0,0,0-.69.1H283.2a1.15,1.15,0,0,1-.49-.1c-2.93-.33-4.6-1.76-5-4.3l-8.31-33-2.25,36.29Z"/><path class="cls-7" d="M373.08,195.69l-22.39,12.72-5.12-9.24,8.54-4.85a6.65,6.65,0,0,0-4-1.85h-.49a1.77,1.77,0,0,1-.49.09,7.13,7.13,0,0,0-4.5,3.23,9.92,9.92,0,0,0-1.76,5.58,10.35,10.35,0,0,0,2.35,6.84,7.71,7.71,0,0,0,6.26,2.84q6.45,0,11.64-6.06l10,9.68a24.13,24.13,0,0,1-10,8.26,30.85,30.85,0,0,1-13.16,3q-10.17,0-16.72-6.61t-6.55-16.87a23.54,23.54,0,0,1,6.3-16.77q6.31-6.71,16.29-6.7,17.31,0,23.86,16.82Z"/><path class="cls-7" d="M427.07,195.69l-22.39,12.72-5.12-9.24,8.54-4.85a6.65,6.65,0,0,0-4-1.85h-.49a1.77,1.77,0,0,1-.49.09,7.13,7.13,0,0,0-4.5,3.23,9.92,9.92,0,0,0-1.76,5.58,10.35,10.35,0,0,0,2.35,6.84,7.71,7.71,0,0,0,6.26,2.84q6.45,0,11.64-6.06l10,9.68a24.13,24.13,0,0,1-10,8.26,30.85,30.85,0,0,1-13.16,3q-10.17,0-16.72-6.61t-6.55-16.87a23.54,23.54,0,0,1,6.3-16.77q6.31-6.71,16.29-6.7,17.31,0,23.86,16.82Z"/><path class="cls-7" d="M434.12,166.35h18.77v14.09h9.2v15.25h-9.2v9.13a4.89,4.89,0,0,0,.93,3.4c.62.65,1.75.94,3.38.87h4.89v15.26h-9.88q-8.31,0-13-3.91-5.08-4.2-5.08-12.42Z"/><path class="cls-7" d="M467.47,165.67a9.07,9.07,0,0,1,3-7.09,10.72,10.72,0,0,1,7.48-2.69,7.3,7.3,0,0,1,1.76.19,10.61,10.61,0,0,1,6.31,3.23,9.06,9.06,0,0,1,2.5,6.45v.59a10,10,0,0,1-2.89,7.19,9.47,9.47,0,0,1-7.09,3h-.59a10,10,0,0,1-7.58-3,10.77,10.77,0,0,1-2.88-7.73Zm.68,58.68V180.44h18.78v43.91Z"/><path class="cls-7" d="M492.31,224.35v-28a14.24,14.24,0,0,1,6.75-12.52,24.72,24.72,0,0,1,14.28-4h1.08a23,23,0,0,1,14.18,4.4,15.27,15.27,0,0,1,6.45,12.91v27.19H516.18V198.53c0-1.63-.69-2.61-2.06-2.93a.26.26,0,0,0-.19-.1h-.79a1.8,1.8,0,0,1-.39.1,3,3,0,0,0-2.35,3v25.72Z"/><path class="cls-7" d="M567.91,223a12.62,12.62,0,0,1-5.57,1.57h-1.17a17.3,17.3,0,0,1-3.43-.3,18.38,18.38,0,0,1-12.32-8.31,25.64,25.64,0,0,1-4.11-14.57q0-10.37,6.85-16.43,6.45-5.77,17-6a22.32,22.32,0,0,1,16.13,6.21,20.33,20.33,0,0,1,7,15.5V223q0,10.47-7.34,15.65-6.36,4.5-17.31,4.5h-1.27c-.13,0-.59,0-1.37-.1a67.81,67.81,0,0,1-15.45-2.64V225.72a99.65,99.65,0,0,0,10.07,2.06,38.17,38.17,0,0,0,5.58.39q9.48,0,9.48-7.14v-18.2a7.26,7.26,0,0,0-1.51-4.59,4.87,4.87,0,0,0-4.06-2h-.49a5.78,5.78,0,0,0-4.16,1.66,5.51,5.51,0,0,0-1.71,4.11c0,4,1.66,6.07,5,6.07a9,9,0,0,0,2.54-.4,16.36,16.36,0,0,1,1.66-.58Z"/></g></g></g></svg>